<svg width="43" height="43" viewBox="0 0 43 44" fill="none" xmlns="http://www.w3.org/2000/svg">
<circle cx="21.5" cy="22" r="21.5" fill="#FF8310"/>
<path d="M29.3744 19.2784C29.3744 19.2784 28.7907 26.5186 28.452 29.5683C28.2908 31.025 27.391 31.8785 25.9172 31.9054C23.1125 31.9559 20.3046 31.9591 17.501 31.9C16.0831 31.871 15.1984 31.0067 15.0403 29.5759C14.6996 26.4992 14.1191 19.2784 14.1191 19.2784M30.8614 15.8078H12.6316M27.3488 15.8078C26.5049 15.8078 25.7782 15.2112 25.6126 14.3845L25.3514 13.0773C25.1902 12.4742 24.6441 12.0571 24.0216 12.0571H19.4712C18.8487 12.0571 18.3026 12.4742 18.1414 13.0773L17.8802 14.3845C17.7146 15.2112 16.9879 15.8078 16.144 15.8078" stroke="white" stroke-width="1.3" stroke-linecap="round" stroke-linejoin="round"/>
</svg>
